<?xml version="1.0" standalone="no"?>
<!DOCTYPE svg PUBLIC "-//W3C//DTD SVG 20010904//EN"
 "http://www.w3.org/TR/2001/REC-SVG-20010904/DTD/svg10.dtd">
<svg version="1.0" xmlns="http://www.w3.org/2000/svg"
 width="403.000000pt" height="386.000000pt" viewBox="0 0 403.000000 386.000000"
 preserveAspectRatio="xMidYMid meet">

<g transform="translate(0.000000,386.000000) scale(0.100000,-0.100000)"
fill="#000000" stroke="none">
<path d="M536 3684 c-129 -31 -261 -134 -324 -251 -65 -122 -62 -56 -62 -1536
0 -1476 -2 -1408 61 -1528 64 -119 206 -224 338 -249 35 -6 527 -10 1405 -10
1470 0 1414 -2 1528 56 70 36 159 123 196 192 57 107 62 148 62 486 l0 307
-142 -3 -143 -3 -6 -255 c-3 -140 -10 -269 -16 -286 -32 -94 -114 -168 -212
-191 -83 -19 -2473 -19 -2546 1 -104 27 -183 100 -213 196 -16 51 -17 152 -17
1295 0 1425 -8 1302 95 1405 101 101 -20 93 1404 93 952 0 1251 -3 1286 -13
96 -26 179 -112 206 -214 10 -36 14 -119 14 -283 l0 -233 146 0 145 0 -3 328
c-3 316 -4 329 -27 387 -13 33 -36 78 -51 100 -41 59 -130 139 -187 168 -116
59 -61 57 -1531 56 -1127 -1 -1357 -3 -1406 -15z"/>
<path d="M1119 2976 c-131 -35 -229 -142 -259 -282 -7 -33 -10 -296 -8 -789
l3 -740 29 -63 c37 -79 114 -152 191 -181 55 -21 70 -21 828 -20 425 1 783 4
797 9 21 6 33 0 78 -44 l52 -50 100 99 c55 55 100 104 100 110 0 6 -23 33 -50
60 -34 34 -48 55 -44 65 10 22 13 1409 4 1511 -16 170 -112 282 -272 319 -67
15 -1491 12 -1549 -4z m1440 -282 c18 -4 45 -20 62 -36 l29 -30 0 -599 c0
-329 -4 -599 -8 -599 -5 0 -21 14 -37 30 -16 17 -34 30 -40 30 -6 0 -55 -45
-110 -100 l-99 -100 49 -50 50 -50 -629 2 -628 3 -24 30 -24 30 0 682 0 683
29 32 c29 33 30 33 143 39 162 8 1199 10 1237 3z"/>
</g>
</svg>
