<svg id="visual" viewBox="0 0 900 600" width="900" height="600" xmlns="http://www.w3.org/2000/svg" xmlns:xlink="http://www.w3.org/1999/xlink" version="1.1"><rect x="0" y="0" width="900" height="600" fill="#151D3B"></rect><path d="M0 396L129 413L257 383L386 387L514 434L643 390L771 359L900 426L900 601L771 601L643 601L514 601L386 601L257 601L129 601L0 601Z" fill="#151d3b"></path><path d="M0 449L129 414L257 399L386 432L514 437L643 438L771 419L900 462L900 601L771 601L643 601L514 601L386 601L257 601L129 601L0 601Z" fill="#362553"></path><path d="M0 490L129 451L257 491L386 427L514 468L643 456L771 474L900 458L900 601L771 601L643 601L514 601L386 601L257 601L129 601L0 601Z" fill="#602662"></path><path d="M0 492L129 520L257 495L386 516L514 512L643 471L771 507L900 462L900 601L771 601L643 601L514 601L386 601L257 601L129 601L0 601Z" fill="#8c2065"></path><path d="M0 541L129 548L257 497L386 520L514 499L643 550L771 534L900 531L900 601L771 601L643 601L514 601L386 601L257 601L129 601L0 601Z" fill="#b6175c"></path><path d="M0 543L129 552L257 566L386 559L514 577L643 556L771 561L900 558L900 601L771 601L643 601L514 601L386 601L257 601L129 601L0 601Z" fill="#d82148"></path></svg>