<svg id="visual" viewBox="0 0 900 600" width="900" height="600" xmlns="http://www.w3.org/2000/svg" xmlns:xlink="http://www.w3.org/1999/xlink" version="1.1"><rect x="0" y="0" width="900" height="600" fill="#151D3B"></rect><path d="M0 171L30 159.5C60 148 120 125 180 123C240 121 300 140 360 154.3C420 168.7 480 178.3 540 166.8C600 155.3 660 122.7 720 116.2C780 109.7 840 129.3 870 139.2L900 149L900 0L870 0C840 0 780 0 720 0C660 0 600 0 540 0C480 0 420 0 360 0C300 0 240 0 180 0C120 0 60 0 30 0L0 0Z" fill="#D82148" stroke-linecap="round" stroke-linejoin="miter"></path></svg>