<svg id="visual" viewBox="0 0 900 600" width="900" height="600" xmlns="http://www.w3.org/2000/svg" xmlns:xlink="http://www.w3.org/1999/xlink" version="1.1"><rect x="0" y="0" width="900" height="600" fill="#151D3B"></rect><path d="M0 460L21.5 469C43 478 86 496 128.8 506.2C171.7 516.3 214.3 518.7 257.2 512.3C300 506 343 491 385.8 467.8C428.7 444.7 471.3 413.3 514.2 399.8C557 386.3 600 390.7 642.8 405.3C685.7 420 728.3 445 771.2 457.8C814 470.7 857 471.3 878.5 471.7L900 472L900 601L878.5 601C857 601 814 601 771.2 601C728.3 601 685.7 601 642.8 601C600 601 557 601 514.2 601C471.3 601 428.7 601 385.8 601C343 601 300 601 257.2 601C214.3 601 171.7 601 128.8 601C86 601 43 601 21.5 601L0 601Z" fill="#D82148" stroke-linecap="round" stroke-linejoin="miter"></path></svg>